<?xml version="1.0" encoding="UTF-8"?>
<svg width="12px" height="12px" viewBox="0 0 12 12" version="1.1" xmlns="http://www.w3.org/2000/svg" xmlns:xlink="http://www.w3.org/1999/xlink">
    <title>edit-light</title>
    <g id="edit-light" stroke="none" stroke-width="1" fill="none" fill-rule="evenodd" fill-opacity="0.7">
        <g id="edit" transform="translate(-0, 0)" fill="#000000">
            <path d="M3.02999055,11.4465669 L0.312857714,11.9947896 C0.171451612,12.0233204 0.03369047,11.9318171 0.00515958978,11.7904113 C-0.0017194695,11.756317 -0.00171986713,11.7211922 0.00515842022,11.6870978 L0.553398315,8.969573 L0.553398315,8.969573 L7.5281821,1.99526335 C7.73219766,1.79126266 8.06296049,1.79127441 8.26696157,1.99528959 C8.26696729,1.99529531 8.26697301,1.99530103 8.26697873,1.99530676 L10.0052749,3.73390967 C10.2092666,3.93793433 10.2092394,4.26869654 10.0052144,4.47268776 C10.0052128,4.47268933 10.0052112,4.47269091 10.0052097,4.47269249 L3.02999055,11.4465669 L3.02999055,11.4465669 Z M11.847054,1.89084978 L10.1085011,0.152938868 C9.90445711,-0.0510305726 9.57369713,-0.0509721486 9.36972526,0.153069362 L8.88261124,0.640594766 C8.67868719,0.844588448 8.67868745,1.17525339 8.88261184,1.3792467 L10.6206021,3.11859078 C10.8245758,3.32263336 11.1553386,3.32268953 11.3593816,3.11871624 C11.3594674,3.11863055 11.3595531,3.11854481 11.3596387,3.11845905 L11.8471881,2.62962785 C12.0510393,2.42556232 12.0509223,2.09489832 11.8469266,1.89097715 L11.847054,1.89084978 Z" id="形状"></path>
        </g>
    </g>
</svg>