<svg xmlns="http://www.w3.org/2000/svg" width="96" height="96" viewBox="0 0 96 96">
  <defs>
    <filter id="deepin-terminal-a" width="127.9%" height="130.8%" x="-14%" y="-15.4%" filterUnits="objectBoundingBox">
      <feOffset dy="2" in="SourceAlpha" result="shadowOffsetOuter1"/>
      <feGaussianBlur in="shadowOffsetOuter1" result="shadowBlurOuter1" stdDeviation="2"/>
      <feComposite in="shadowBlurOuter1" in2="SourceAlpha" operator="out" result="shadowBlurOuter1"/>
      <feColorMatrix in="shadowBlurOuter1" result="shadowMatrixOuter1" values="0 0 0 0 0   0 0 0 0 0   0 0 0 0 0  0 0 0 0.2 0"/>
      <feMerge>
        <feMergeNode in="shadowMatrixOuter1"/>
        <feMergeNode in="SourceGraphic"/>
      </feMerge>
    </filter>
    <radialGradient id="deepin-terminal-b" cx="50%" cy="0%" r="100%" fx="50%" fy="0%" gradientTransform="matrix(0 1 -.90698 0 .5 -.5)">
      <stop offset="0%" stop-color="#FF774D"/>
      <stop offset="100%" stop-color="#BA0E55"/>
    </radialGradient>
  </defs>
  <g fill="none" fill-rule="evenodd" filter="url(#deepin-terminal-a)" transform="translate(5 9)">
    <rect width="86" height="78" fill="url(#deepin-terminal-b)" rx="12"/>
    <path fill="#FFF0F0" fill-rule="nonzero" d="M51.4545455,43 C52.5842188,43 54,44.1192881 54,45.5 C54,46.8807119 52.5842188,48 51.4545455,48 L51.4545455,48 L31.5454545,48 C30.4157812,48 29,46.8807119 29,45.5 C29,44.1192881 30.4157812,43 31.5454545,43 L31.5454545,43 Z M11.8064975,15.3662902 C12.4326281,14.2929234 13.810343,13.9303668 14.8837098,14.5564975 L14.8837098,14.5564975 L32.8837098,25.0564975 C34.3720967,25.9247232 34.3720967,28.0752768 32.8837098,28.9435025 L32.8837098,28.9435025 L14.8837098,39.4435025 C13.810343,40.0696332 12.4326281,39.7070766 11.8064975,38.6337098 C11.1803668,37.560343 11.5429234,36.1826281 12.6162902,35.5564975 L12.6162902,35.5564975 L27.3835774,26.9422466 L12.6162902,18.4435025 C11.5429234,17.8173719 11.1803668,16.439657 11.8064975,15.3662902 Z"/>
  </g>
</svg>
