<?xml version="1.0" encoding="UTF-8"?>
<svg width="32px" height="32px" viewBox="0 0 32 32" version="1.1" xmlns="http://www.w3.org/2000/svg" xmlns:xlink="http://www.w3.org/1999/xlink">
    <!-- Generator: Sketch 58 (84663) - https://sketch.com -->
    <title>deepin-terminal-32px</title>
    <desc>Created with Sketch.</desc>
    <defs>
        <filter x="-13.3%" y="-14.3%" width="126.7%" height="128.6%" filterUnits="objectBoundingBox" id="filter-1">
            <feOffset dx="0" dy="1" in="SourceAlpha" result="shadowOffsetOuter1"></feOffset>
            <feGaussianBlur stdDeviation="0.5" in="shadowOffsetOuter1" result="shadowBlurOuter1"></feGaussianBlur>
            <feComposite in="shadowBlurOuter1" in2="SourceAlpha" operator="out" result="shadowBlurOuter1"></feComposite>
            <feColorMatrix values="0 0 0 0 0   0 0 0 0 0   0 0 0 0 0  0 0 0 0.15 0" type="matrix" in="shadowBlurOuter1" result="shadowMatrixOuter1"></feColorMatrix>
            <feMerge>
                <feMergeNode in="shadowMatrixOuter1"></feMergeNode>
                <feMergeNode in="SourceGraphic"></feMergeNode>
            </feMerge>
        </filter>
        <radialGradient cx="50%" cy="0%" fx="50%" fy="0%" r="100%" gradientTransform="translate(0.500000,0.000000),scale(0.933333,1.000000),rotate(90.000000),translate(-0.500000,-0.000000)" id="radialGradient-2">
            <stop stop-color="#FF774D" offset="0%"></stop>
            <stop stop-color="#BA0E55" offset="100%"></stop>
        </radialGradient>
    </defs>
    <g id="deepin-terminal-32px" stroke="none" stroke-width="1" fill="none" fill-rule="evenodd">
        <g id="Group" filter="url(#filter-1)" transform="translate(1.000000, 2.000000)">
            <rect id="Rectangle-245" fill="url(#radialGradient-2)" x="0" y="0" width="30" height="28" rx="4"></rect>
            <path d="M17.5098379,17.0002001 C17.579861,17.003383 17.9999999,17.0415774 17.9999999,17.4999108 C17.9999999,17.9999108 17.4999999,17.9999108 17.4999999,17.9999108 L17.4999999,17.9999108 L11.5,17.9999108 C11.5,17.9999108 10.9999108,17.9999108 10.9999108,17.4999108 C10.9999108,16.9999108 11.5,16.9999108 11.5,16.9999108 Z M5.98173266,7.19767738 C6.14870083,6.91144624 6.51609147,6.81476449 6.80232262,6.98173266 L6.80232262,6.98173266 L12.8023226,10.4817327 C13.1992258,10.7132595 13.1992258,11.2867405 12.8023226,11.5182673 L12.8023226,11.5182673 L6.80232262,15.0182673 C6.51609147,15.1852355 6.14870083,15.0885538 5.98173266,14.8023226 C5.81476449,14.5160915 5.91144624,14.1487008 6.19767738,13.9817327 L6.19767738,13.9817327 L11.3461402,10.9784627 L6.19767738,8.01826734 C5.91144624,7.85129917 5.81476449,7.48390853 5.98173266,7.19767738 Z" id="Combined-Shape" fill="#FFFFFF" fill-rule="nonzero"></path>
        </g>
    </g>
</svg>