<?xml version="1.0" encoding="UTF-8"?>
<svg width="50px" height="50px" viewBox="0 0 50 50" version="1.1" xmlns="http://www.w3.org/2000/svg" xmlns:xlink="http://www.w3.org/1999/xlink">
    <!-- Generator: Sketch 58 (84663) - https://sketch.com -->
    <title>exit hover</title>
    <desc>Created with Sketch.</desc>
    <g id="页面-1" stroke="none" stroke-width="1" fill="none" fill-rule="evenodd">
        <g id="终端全屏-退出全屏" transform="translate(-1870.000000, 0.000000)" fill="#000000">
            <g id="编组" transform="translate(1870.000000, 0.000000)">
                <rect id="矩形" fill-opacity="0.1" x="0" y="0" width="50" height="50" rx="8"></rect>
                <path d="M27.0878984,19.3320109 L29.5107269,19.3320109 C30.1539263,19.3320109 30.673818,19.8532053 30.673818,20.4980163 L30.673818,22.9269158 C30.673818,23.5717269 31.1937096,24.0929213 31.836909,24.0929213 C32.4801083,24.0929213 33,23.5717269 33,22.9269158 L33,20.4980163 C33,18.5669242 31.4369923,17 29.5107269,17 L27.0878984,17 C26.444699,17 25.9248073,17.5211944 25.9248073,18.1660054 C25.9248073,18.8108165 26.4480317,19.3320109 27.0878984,19.3320109 L27.0878984,19.3320109 Z M20.4892731,33 L22.9121016,33 C23.555301,33 24.0751927,32.4788056 24.0751927,31.8339946 C24.0751927,31.1891835 23.555301,30.6679891 22.9121016,30.6679891 L20.4892731,30.6679891 C19.8460737,30.6679891 19.326182,30.1467947 19.326182,29.5019837 L19.326182,27.0730842 C19.326182,26.4282731 18.8062904,25.9070787 18.163091,25.9070787 C17.5198917,25.9070787 17,26.4282731 17,27.0730842 L17,29.5019837 C17,31.4364168 18.5630077,33 20.4892731,33 L20.4892731,33 Z" id="形状" fill-rule="nonzero"></path>
            </g>
        </g>
    </g>
</svg>