<?xml version="1.0" encoding="UTF-8"?>
<svg width="16px" height="16px" viewBox="0 0 16 16" version="1.1" xmlns="http://www.w3.org/2000/svg" xmlns:xlink="http://www.w3.org/1999/xlink">
    <title>edit</title>
    <g id="edit" stroke="none" stroke-width="1" fill="none" fill-rule="evenodd">
        <g id="ICON" transform="translate(1, 1)" fill="#000000" fill-rule="nonzero">
            <path d="M3.53498033,13.3543203 L0.364999774,13.9939131 C0.200026392,14.0271991 0.0393054522,13.9204453 0.00601950669,13.7554719 C-0.00200604284,13.7156953 -0.00200650674,13.6747164 0.0060181422,13.6349396 L0.645629789,10.4644958 L0.645629789,10.4644958 L8.78285764,2.3278059 C9.02087521,2.08980523 9.40676424,2.08981894 9.64476491,2.32783651 C9.64477158,2.32784319 9.64477826,2.32784986 9.64478493,2.32785654 L11.6727922,4.35622544 C11.9107819,4.59425407 11.9107502,4.9801431 11.6727216,5.21813271 C11.6727197,5.21813455 11.6727179,5.21813639 11.6727161,5.21813823 L3.53498033,13.3543203 L3.53498033,13.3543203 Z M13.8215292,2.20599014 L11.7932224,0.178428576 C11.5551717,-0.0595356337 11.169286,-0.0594674724 10.9313194,0.178580819 L10.3630211,0.74736013 C10.1251103,0.985352622 10.1251106,1.37112816 10.3630218,1.60912022 L12.3906722,3.63835381 C12.6286409,3.87640335 13.0145299,3.87646889 13.2525795,3.63850019 C13.2526795,3.63840021 13.2527795,3.63830018 13.2528794,3.63820013 L13.8216857,3.06789739 C14.0595115,2.82982108 14.059375,2.44404663 13.8213806,2.20613874 Z" id="形状"></path>
        </g>
    </g>
</svg>